
<svg width="36" height="36" viewBox="0 0 36 36" fill="none" xmlns="http://www.w3.org/2000/svg">
<path d="M35.5 17.6842C35.5 27.1665 27.6734 34.8684 18 34.8684C8.32664 34.8684 0.5 27.1665 0.5 17.6842C0.5 8.20194 8.32664 0.5 18 0.5C27.6734 0.5 35.5 8.20194 35.5 17.6842Z" stroke="white"/>
<path d="M17.3307 28.143C17.5259 28.3383 17.8425 28.3383 18.0378 28.143L21.2197 24.961C21.415 24.7658 21.415 24.4492 21.2197 24.2539C21.0245 24.0587 20.7079 24.0587 20.5126 24.2539L17.6842 27.0824L14.8558 24.2539C14.6605 24.0587 14.3439 24.0587 14.1487 24.2539C13.9534 24.4492 13.9534 24.7658 14.1487 24.961L17.3307 28.143ZM17.1842 5.05263V27.7895H18.1842V5.05263H17.1842Z" fill="white"/>
</svg>
