<svg width="109" height="185" viewBox="0 0 109 185" fill="none" xmlns="http://www.w3.org/2000/svg">
<path d="M55.5 0L61.9269 25.257L86 32L61.9269 38.743L55.5 64L49.0731 38.743L25 32L49.0731 25.257L55.5 0Z" fill="white"/>
<path d="M24.3762 117H18.7962V107.316H9.90416V117H4.36016V92.736H9.90416V102.6H18.7962V92.736H24.3762V117ZM46.7518 117H41.2078V108.108L32.9278 92.736H39.4078L40.8838 96.264C41.6518 98.088 42.2878 99.648 42.7918 100.944C43.2958 102.24 43.6198 103.08 43.7638 103.464L43.9438 104.04C44.1838 102.96 45.2398 100.368 47.1118 96.264L48.6958 92.736H55.1398L46.7518 108.072V117ZM72.0447 109.152H69.2367V117H63.6927V92.736H72.0447C74.7327 92.736 76.9047 93.492 78.5607 95.004C80.2407 96.516 81.0807 98.436 81.0807 100.764C81.0807 103.428 80.2047 105.492 78.4527 106.956C76.7247 108.42 74.5887 109.152 72.0447 109.152ZM71.3967 97.164H69.2367V104.76H71.0727C74.0007 104.76 75.4647 103.428 75.4647 100.764C75.4647 98.364 74.1087 97.164 71.3967 97.164ZM104.822 117H89.7378V92.736H104.678V97.164H95.3178V102.672H103.67V107.064H95.3178V112.572H104.822V117ZM12.5319 130.236H9.79587V137.076H12.4239C14.8239 137.076 16.0239 135.9 16.0239 133.548C16.0239 132.516 15.7119 131.712 15.0879 131.136C14.4639 130.536 13.6119 130.236 12.5319 130.236ZM9.79587 150H4.25187V125.736H12.6399C15.3519 125.736 17.5239 126.456 19.1559 127.896C20.8119 129.336 21.6399 131.208 21.6399 133.512C21.6399 136.968 20.1639 139.356 17.2119 140.676L23.3679 150H16.7439L11.4879 141.576H9.79587V150ZM39.1092 150H33.5652V125.736H39.1092V150ZM73.6947 137.796C73.6947 141.516 72.6147 144.528 70.4547 146.832C68.3187 149.112 65.4627 150.252 61.8867 150.252C58.2867 150.252 55.4187 149.112 53.2827 146.832C51.1467 144.552 50.0787 141.54 50.0787 137.796C50.0787 134.076 51.1467 131.076 53.2827 128.796C55.4427 126.492 58.3107 125.34 61.8867 125.34C65.4867 125.34 68.3547 126.48 70.4908 128.76C72.6267 131.04 73.6947 134.052 73.6947 137.796ZM57.6027 132.396C56.5467 133.716 56.0187 135.516 56.0187 137.796C56.0187 140.076 56.5467 141.888 57.6027 143.232C58.6587 144.552 60.0867 145.212 61.8867 145.212C63.6867 145.212 65.1147 144.552 66.1707 143.232C67.2267 141.888 67.7547 140.076 67.7547 137.796C67.7547 135.516 67.2267 133.716 66.1707 132.396C65.1147 131.052 63.6867 130.38 61.8867 130.38C60.0867 130.38 58.6587 131.052 57.6027 132.396ZM89.8706 150H84.3266V125.736H90.4106L96.0626 135.78C96.8546 137.196 97.5386 138.528 98.1146 139.776C98.7146 141 99.0986 141.864 99.2666 142.368L99.5546 143.16C99.3146 141.384 99.1946 138.924 99.1946 135.78V125.736H104.739V150H98.6546L92.8586 139.956C92.0906 138.66 91.4066 137.388 90.8066 136.14C90.2306 134.868 89.8346 133.932 89.6186 133.332L89.3306 132.432C89.6906 134.592 89.8706 137.1 89.8706 139.956V150Z" fill="white"/>
</svg>
